<svg width="19" height="20" viewBox="0 0 19 20" fill="none" xmlns="http://www.w3.org/2000/svg">
<path fill-rule="evenodd" clip-rule="evenodd" d="M17.733 14.9518C17.1543 14.9518 16.7041 14.5016 16.7041 13.9228V8.90675C16.7041 8.32797 17.1543 7.94212 17.733 7.94212C18.3118 7.94212 18.762 8.39228 18.762 8.90675V13.9228C18.762 14.5016 18.3118 14.9518 17.733 14.9518ZM13.7459 16.9453V19.4534C13.7459 19.7106 13.553 19.9678 13.2314 19.9678H12.2025C11.9453 19.9678 11.688 19.7749 11.688 19.4534V16.9453H7.70089V19.4534C7.70089 19.7106 7.50797 19.9678 7.18642 19.9678H6.15748C5.90025 19.9678 5.64301 19.7749 5.64301 19.4534V16.9453C4.54977 16.9453 3.64945 16.045 3.64945 14.9518V8.97106H15.6752V15.9807C15.7395 17.074 14.8392 16.9453 13.7459 16.9453ZM3.77806 7.42765C3.77806 5.49839 4.61408 3.76206 5.90025 2.6045L5.06424 1.76849C4.67838 1.38264 4.67838 0.73955 5.06424 0.289389C5.45009 -0.096463 6.15748 -0.096463 6.54334 0.289389L7.70089 1.44695C8.34398 1.18971 9.05137 0.996785 9.82308 0.996785C10.5305 0.996785 11.2379 1.18971 11.881 1.44695L13.0385 0.353698C13.4244 -0.0321543 14.0675 -0.0321543 14.5176 0.353698C14.9035 0.73955 14.9035 1.38264 14.5176 1.8328L13.6173 2.6045C14.9035 3.76206 15.7395 5.49839 15.7395 7.49196V8.07074H3.77806V7.42765ZM12.2668 7.0418C13.1028 7.0418 13.7459 6.39871 13.7459 5.5627C13.7459 4.72669 13.1028 4.0836 12.2668 4.0836C11.4308 4.0836 10.7877 4.72669 10.7877 5.5627C10.7877 6.3344 11.4308 7.0418 12.2668 7.0418ZM7.25073 7.0418C8.08674 7.0418 8.72983 6.39871 8.72983 5.5627C8.72983 4.72669 8.08674 4.0836 7.25073 4.0836C6.41472 4.0836 5.77163 4.72669 5.77163 5.5627C5.77163 6.3344 6.41472 7.0418 7.25073 7.0418ZM1.78449 14.9518C1.20572 14.9518 0.755554 14.5016 0.755554 13.9228V8.90675C0.755554 8.32797 1.20572 7.94212 1.78449 7.94212C2.36327 7.94212 2.81343 8.39228 2.81343 8.90675V13.9228C2.74912 14.5016 2.29896 14.9518 1.78449 14.9518Z" fill="#CDD2E1"/>
</svg>
