<svg width="16" height="20" viewBox="0 0 16 20" fill="none" xmlns="http://www.w3.org/2000/svg">
<path d="M2.55557 16.8839C0.955565 14.5839 -0.24444 10.3839 1.35556 7.58392C2.15556 6.18392 3.55556 5.28392 5.15556 5.28392C6.35556 5.28392 7.45556 6.08392 8.25556 6.08392C9.05556 6.08392 10.3556 5.08392 11.8556 5.18392C13.2556 5.18392 14.4556 5.88392 15.2556 6.98392C14.0556 7.78392 13.2556 9.08393 13.2556 10.4839C13.2556 12.0839 14.2556 13.5839 15.7556 14.1839C15.4556 15.0839 15.0556 15.9839 14.4556 16.7839C13.6556 17.8839 12.8556 18.9839 11.6556 19.0839C10.4556 19.0839 9.95556 18.3839 8.55556 18.3839C7.15556 18.3839 6.65556 19.0839 5.45556 19.1839H5.35556C4.15556 19.1839 3.25557 17.9839 2.55557 16.8839ZM8.65556 5.08392C8.55556 4.08392 8.95556 2.98392 9.65556 2.18392C10.3556 1.38392 11.3556 0.883924 12.4556 0.783924C12.5556 1.88392 12.1556 2.88392 11.4556 3.78392C10.8556 4.58392 9.85556 5.08392 8.85556 5.08392C8.75556 5.08392 8.65556 5.08392 8.65556 5.08392Z" fill="#CDD2E1"/>
</svg>
