<svg width="24" height="24" viewBox="0 0 24 24" fill="none" xmlns="http://www.w3.org/2000/svg">
<path d="M9.80001 16.7189C9.99376 16.9064 10.2438 17.0001 10.5 17.0001C10.7625 17.0001 11.0188 16.9001 11.2188 16.7001L14.4188 13.4189C15.2 12.6376 15.2 11.3689 14.4313 10.6001L11.225 7.30637C10.8375 6.91262 10.2063 6.90012 9.81251 7.28762C9.41876 7.67512 9.40626 8.30637 9.79376 8.70011L13 12.0126L9.79376 15.3064C9.40001 15.7001 9.40626 16.3314 9.80001 16.7189Z" fill="white"/>
<path d="M0.1125 10.3624C0.0375 10.8936 0 11.4436 0 11.9999C0 12.5561 0.0375 13.1061 0.1125 13.6436C0.18125 14.1436 0.6125 14.4999 1.1 14.4999C1.15 14.4999 1.19375 14.4936 1.24375 14.4874C1.7875 14.4124 2.16875 13.8999 2.09375 13.3561C2.03125 12.9186 2 12.4561 2 11.9999C2 11.5436 2.03125 11.0811 2.09375 10.6436C2.16875 10.0936 1.79375 9.58738 1.24375 9.51238C0.7 9.43113 0.19375 9.81238 0.1125 10.3624Z" fill="white"/>
<path d="M1.31251 6.54375C1.06251 7.0375 1.25626 7.6375 1.75001 7.8875C2.24376 8.1375 2.84376 7.94375 3.09376 7.45C4.81251 4.09375 8.22501 2 12 2C17.5125 2 22 6.4875 22 12C22 17.5125 17.5125 22 12 22C8.22501 22 4.81251 19.9125 3.08751 16.5438C2.83751 16.05 2.23126 15.8563 1.74376 16.1063C1.25001 16.3563 1.05626 16.9625 1.30626 17.45C3.37501 21.4938 7.46876 24 12 24C18.6188 24 24 18.6187 24 12C24 5.38125 18.6188 0 12 0C7.46876 0 3.37501 2.50625 1.31251 6.54375Z" fill="#A4C2FF"/>
</svg>
