<svg width="19" height="16" viewBox="0 0 19 16" fill="none" xmlns="http://www.w3.org/2000/svg">
<path d="M19 15.3339H11.7C11.5 14.4339 11.3 13.6339 11.3 12.7339C13 12.7339 14.7 12.2339 16.2 11.4339V11.3339L15.7 10.5339H15.6C14.3 11.3339 12.8 11.7339 11.2 11.7339C11.2 10.9339 11.4 10.0339 11.6 9.23392L11.8 8.63392L11.7 8.53392H8.2C8.4 6.73392 8.9 5.03392 9.6 3.33392C10 2.43392 10.5 1.53392 11.1 0.633923H18.9V15.3339H19ZM12.9 2.93392L12.8 5.23392L12.9 5.33392H13.8L13.9 5.23392V3.03392L13.8 2.93392H12.9ZM10.7 15.3339H0V0.633923H10C9.5 1.33392 9.1 2.13392 8.8 2.83392C7.9 4.73392 7.4 6.83392 7.2 8.93392V9.43392L7.3 9.53392H10.6C10.4 10.2339 10.3 11.0339 10.3 11.7339C9.9 11.7339 9.6 11.7339 9.3 11.7339C7.2 11.8339 5.19999 11.3339 3.39999 10.4339H3.3L2.89999 11.2339V11.3339C4.09999 11.9339 5.4 12.3339 6.7 12.5339C7.6 12.6339 8.4 12.7339 9.3 12.7339C9.6 12.7339 10 12.7339 10.4 12.7339C10.3 13.6339 10.5 14.5339 10.7 15.3339ZM4.7 2.93392L4.60001 5.23392L4.7 5.33392H5.60001L5.7 5.23392V3.03392L5.60001 2.93392H4.7Z" fill="#CDD2E1"/>
</svg>
